<?xml version="1.0" standalone="no"?>
<!DOCTYPE svg PUBLIC "-//W3C//DTD SVG 20010904//EN"
 "http://www.w3.org/TR/2001/REC-SVG-20010904/DTD/svg10.dtd">
<svg version="1.0" xmlns="http://www.w3.org/2000/svg"
 width="1024.000000pt" height="1024.000000pt" viewBox="0 0 1024.000000 1024.000000"
 preserveAspectRatio="xMidYMid meet">

<g transform="translate(0.000000,1024.000000) scale(0.100000,-0.100000)"
fill="#000000" stroke="none">
<path d="M0 5120 l0 -5120 5120 0 5120 0 0 5120 0 5120 -5120 0 -5120 0 0
-5120z m3965 4623 c83 -19 158 -37 168 -39 9 -2 25 -6 35 -8 9 -2 58 -15 107
-29 50 -14 115 -31 145 -36 30 -6 125 -25 210 -42 85 -17 193 -37 240 -44 47
-7 119 -20 160 -29 147 -32 256 -54 295 -60 22 -3 101 -16 175 -30 165 -31
174 -32 278 -46 46 -6 136 -22 200 -36 64 -14 189 -36 277 -50 88 -13 196 -31
240 -38 44 -8 118 -17 165 -20 47 -4 105 -11 130 -16 25 -6 61 -12 80 -14 319
-41 356 -48 424 -80 76 -36 138 -102 230 -241 25 -38 58 -87 73 -107 16 -21
65 -89 111 -150 45 -62 89 -121 97 -131 8 -9 15 -20 15 -23 0 -3 13 -23 28
-43 30 -39 112 -169 112 -178 0 -2 8 -17 19 -31 10 -15 54 -97 98 -182 105
-201 202 -388 218 -420 8 -14 45 -88 83 -165 38 -77 107 -212 154 -300 85
-160 146 -275 263 -500 103 -200 177 -338 202 -380 13 -22 44 -80 69 -130 26
-49 72 -137 104 -195 32 -58 104 -190 160 -295 189 -349 339 -616 420 -745
128 -205 135 -220 135 -285 -1 -82 -29 -127 -167 -261 -187 -183 -339 -335
-433 -434 -146 -154 -353 -376 -470 -505 -61 -66 -128 -140 -151 -165 -86 -94
-299 -327 -344 -375 -25 -27 -117 -129 -205 -225 -87 -96 -202 -222 -255 -280
-53 -58 -182 -199 -286 -314 -569 -628 -679 -755 -835 -961 -99 -132 -142
-175 -196 -196 -50 -19 -143 -13 -233 14 -47 14 -101 28 -120 32 -19 4 -64 15
-100 26 -71 20 -180 44 -305 65 -44 7 -145 27 -225 44 -80 17 -176 35 -215 40
-38 5 -85 14 -104 19 -19 6 -53 13 -75 16 -23 3 -90 15 -151 25 -101 18 -156
29 -390 75 -44 9 -109 20 -145 25 -36 5 -99 16 -140 24 -41 8 -129 24 -195 36
-110 19 -233 42 -375 70 -30 6 -96 17 -147 24 -51 8 -116 19 -145 25 -61 12
-218 40 -398 71 -69 12 -145 26 -170 31 -25 5 -99 18 -165 29 -66 10 -178 28
-250 40 -71 12 -150 23 -175 26 -25 3 -94 12 -155 20 -60 8 -168 21 -240 30
-160 20 -227 43 -280 98 -42 44 -72 120 -95 241 -6 33 -17 83 -25 110 -19 68
-23 92 -45 305 -11 101 -22 191 -25 200 -2 8 -11 83 -20 165 -9 83 -27 213
-40 290 -13 77 -29 176 -35 220 -11 82 -61 385 -74 450 -2 11 -7 45 -11 75 -6
51 -25 155 -60 340 -8 41 -17 100 -20 130 -7 60 -6 53 -42 260 -14 80 -31 186
-38 235 -15 100 -50 287 -64 343 -5 21 -12 62 -16 92 -9 77 -78 374 -116 500
-37 124 -46 257 -23 343 8 29 19 70 23 92 5 22 18 72 29 110 18 64 33 133 46
210 3 17 12 58 20 92 9 34 18 77 21 95 47 275 78 380 143 473 39 56 54 71 237
259 167 172 206 214 273 295 31 36 73 83 94 103 21 21 38 39 38 42 0 2 26 31
58 64 31 34 95 102 142 153 47 50 126 134 175 184 123 126 392 409 447 470 25
28 60 66 77 85 18 19 56 62 86 95 50 56 72 82 186 216 26 30 96 117 155 194
128 165 330 374 394 406 89 46 207 44 425 -8z"/>
<path d="M3906 9351 c-24 -26 -33 -62 -31 -121 3 -56 48 -255 90 -390 60 -195
85 -268 101 -305 10 -22 18 -42 19 -45 1 -3 9 -21 17 -40 9 -19 16 -38 17 -43
1 -15 30 -63 55 -92 14 -16 26 -33 26 -36 0 -8 44 -27 80 -35 43 -10 152 -4
215 12 33 8 89 21 125 29 35 8 78 20 96 25 17 6 40 12 50 15 64 14 209 57 232
69 15 7 63 25 107 38 78 24 165 51 175 53 18 4 128 37 140 42 8 3 20 7 25 9
45 13 111 40 113 47 2 4 13 7 24 7 11 0 32 6 46 14 15 7 52 26 82 42 30 15 60
33 67 40 13 12 31 74 18 62 -4 -4 -19 4 -33 18 -26 24 -88 56 -167 86 -22 9
-67 27 -100 41 -88 36 -157 62 -275 102 -58 20 -145 52 -195 70 -49 19 -162
57 -250 86 -88 28 -176 57 -195 64 -71 26 -226 74 -256 79 -17 3 -50 12 -73
21 -60 21 -196 46 -268 49 -47 3 -66 -1 -77 -13z"/>
<path d="M3490 9182 c-67 -46 -221 -219 -279 -314 -12 -21 -26 -38 -29 -38 -4
0 -15 -12 -24 -28 -9 -15 -30 -46 -47 -69 -17 -24 -28 -43 -26 -43 3 0 -17
-30 -43 -67 -44 -62 -64 -96 -66 -115 -1 -3 -10 -17 -21 -30 -11 -13 -26 -43
-33 -67 -8 -24 -23 -53 -33 -65 -14 -14 -19 -31 -16 -49 2 -15 0 -30 -5 -33
-4 -3 -3 -14 2 -25 6 -11 9 -23 6 -27 -8 -13 10 -33 32 -35 11 0 20 -6 19 -11
-1 -6 12 -15 29 -21 17 -5 39 -17 48 -25 10 -8 28 -16 39 -17 12 -2 26 -8 31
-13 4 -4 15 -6 22 -3 8 3 22 -1 31 -8 14 -12 16 -12 8 1 -7 12 -6 13 6 3 9 -7
54 -14 110 -15 52 -2 97 -7 101 -13 5 -6 8 -5 8 2 0 7 7 10 15 7 8 -3 20 -2
27 2 7 5 29 9 48 10 19 1 36 3 38 4 3 2 71 2 75 0 11 -7 36 -6 31 1 -3 5 1 9
8 10 66 3 93 8 103 22 7 9 15 14 18 10 10 -10 57 26 57 44 0 9 3 13 6 10 12
-12 54 47 55 78 1 17 3 44 4 60 3 35 -40 278 -60 339 -7 22 -25 84 -39 136
-14 52 -39 133 -57 180 -17 47 -36 99 -43 115 -19 53 -46 86 -81 101 -42 17
-44 17 -75 -4z"/>
<path d="M5609 9124 c-9 -11 -8 -14 7 -14 16 0 17 -2 4 -11 -11 -8 -8 -9 13
-4 19 4 26 2 22 -5 -3 -5 3 -10 14 -10 11 0 23 -5 26 -10 4 -6 11 -8 16 -5 5
4 9 1 9 -5 0 -6 4 -9 9 -5 5 3 12 1 16 -5 4 -6 11 -8 16 -5 5 4 9 2 9 -4 0 -5
26 -17 58 -27 51 -15 70 -20 122 -28 8 -1 25 -8 38 -15 13 -7 28 -10 35 -8 7
2 26 -2 42 -8 38 -15 147 -13 153 3 2 7 8 10 13 6 5 -3 9 0 9 5 0 6 -5 11 -11
11 -5 0 -7 6 -3 13 4 6 4 9 -1 5 -4 -4 -19 1 -33 12 -13 11 -28 17 -33 14 -5
-3 -9 0 -9 6 0 6 -4 8 -10 5 -5 -3 -10 -2 -10 4 0 5 -12 8 -26 5 -14 -3 -31
-1 -38 4 -12 11 -50 19 -116 27 -109 13 -136 17 -144 25 -5 5 -15 6 -22 3 -8
-3 -14 0 -14 6 0 6 -10 9 -22 7 -13 -2 -29 1 -36 7 -7 5 -15 7 -18 5 -3 -3
-20 -2 -39 2 -25 6 -38 4 -46 -6z"/>
<path d="M6250 8961 c0 -6 4 -13 10 -16 6 -3 7 1 4 9 -7 18 -14 21 -14 7z"/>
<path d="M6298 8475 c-4 -4 -43 -11 -113 -20 -16 -2 -42 -8 -56 -14 -15 -5
-29 -7 -32 -4 -3 3 -12 1 -19 -3 -7 -5 -17 -9 -23 -10 -46 -9 -65 -14 -100
-28 -22 -9 -102 -31 -177 -50 -75 -19 -152 -41 -170 -50 -18 -8 -62 -24 -98
-36 -36 -11 -74 -25 -85 -30 -11 -4 -51 -19 -90 -31 -38 -13 -115 -40 -170
-60 -55 -21 -124 -45 -154 -54 -30 -9 -73 -25 -95 -34 -23 -10 -54 -24 -71
-31 -16 -7 -36 -14 -43 -16 -7 -1 -20 -8 -28 -15 -9 -7 -26 -15 -37 -16 -12
-2 -23 -8 -25 -13 -2 -6 -9 -10 -15 -10 -7 0 -23 -9 -36 -19 -14 -10 -31 -17
-38 -14 -7 3 -13 -1 -13 -8 0 -8 -10 -25 -21 -39 l-20 -25 11 25 c11 24 10 24
-5 5 -9 -12 -14 -29 -10 -42 3 -14 1 -23 -7 -23 -19 0 -47 -31 -41 -46 3 -8 9
-12 13 -9 5 3 7 -8 5 -25 -2 -16 -1 -30 3 -30 4 0 8 -15 9 -33 2 -17 11 -38
20 -45 10 -7 17 -17 16 -22 -2 -5 4 -7 13 -3 13 5 14 3 6 -13 -7 -14 -6 -23 6
-34 9 -8 18 -14 19 -12 2 1 11 -2 21 -7 16 -10 16 -10 -1 -11 -10 0 -16 -4
-12 -10 3 -5 12 -7 20 -3 9 3 15 -1 15 -11 0 -19 16 -21 23 -3 4 9 8 8 16 -3
6 -8 23 -16 38 -16 46 -3 70 -14 82 -40 9 -21 14 -23 30 -14 14 7 23 6 33 -3
14 -13 211 -19 203 -6 -3 4 12 10 33 13 20 3 46 8 57 10 11 2 24 4 28 5 5 0 6
5 3 9 -3 5 13 8 35 7 21 -1 39 2 39 7 0 5 4 7 9 4 5 -4 11 -1 13 5 2 6 17 12
32 12 20 0 24 2 15 8 -15 9 -13 10 44 14 15 1 31 6 35 10 4 5 -1 5 -10 2 -10
-4 -18 -2 -18 3 0 6 9 10 19 10 28 0 52 11 45 21 -3 5 3 6 12 2 12 -4 15 -3
10 5 -4 7 -2 10 7 6 8 -3 20 2 27 11 7 8 21 15 31 15 10 0 21 5 24 10 3 6 11
10 16 10 6 0 7 -5 3 -12 -4 -7 9 -2 30 10 20 12 46 22 56 22 10 0 22 5 25 11
4 6 12 8 19 6 7 -3 23 6 35 19 13 14 26 22 29 20 2 -3 14 0 26 7 11 6 28 13
36 14 8 1 35 7 60 13 25 6 53 11 62 11 9 0 22 7 28 15 7 7 16 11 21 8 5 -3 9
-1 9 4 0 5 18 9 41 10 22 1 48 6 58 12 10 5 21 6 25 3 3 -3 6 -2 6 3 0 5 15
11 33 13 61 6 65 7 80 19 8 7 41 14 73 16 39 3 62 9 70 20 8 12 20 15 38 10
16 -4 26 -2 26 5 0 6 3 10 8 9 4 -1 17 3 30 10 12 7 22 10 22 6 0 -3 7 -1 15
6 8 6 19 9 24 6 5 -4 13 -1 17 5 5 8 3 9 -6 4 -9 -5 -11 -4 -6 3 4 7 14 12 21
12 32 0 102 51 142 101 22 30 39 57 37 61 -2 3 1 8 8 10 7 3 12 27 14 57 1 28
4 55 8 58 3 3 0 13 -7 21 -10 13 -9 15 6 9 9 -3 17 -2 17 3 0 6 -4 10 -10 10
-5 0 -10 7 -10 15 0 8 -5 15 -11 15 -5 0 -8 4 -4 10 6 9 -71 96 -84 94 -6 -1
-50 16 -96 36 -40 17 -120 31 -209 36 -50 3 -96 7 -103 9 -6 2 -13 2 -15 0z"/>
<path d="M4778 7449 c-4 -11 1 -15 17 -15 13 0 21 4 19 8 -3 5 -9 6 -14 3 -4
-3 -10 0 -12 7 -3 8 -6 7 -10 -3z"/>
<path d="M7945 7291 c-3 -6 -11 -9 -16 -6 -5 4 -9 1 -9 -5 0 -6 -4 -9 -9 -6
-21 13 -60 -15 -79 -56 -39 -83 -92 -284 -107 -408 -4 -30 -13 -80 -21 -110
-8 -30 -19 -111 -24 -180 -6 -69 -14 -143 -19 -165 -16 -67 -20 -92 -26 -193
-4 -53 -13 -124 -20 -157 -7 -33 -16 -96 -19 -140 -11 -141 -17 -189 -31 -260
-7 -38 -16 -117 -19 -174 -4 -57 -13 -133 -20 -170 -8 -36 -17 -124 -21 -194
-3 -70 -11 -140 -16 -155 -6 -15 -13 -112 -16 -216 -9 -284 -7 -286 276 -266
91 6 186 16 211 21 25 6 97 17 160 24 152 19 307 41 405 60 44 8 105 17 135
20 65 7 326 50 425 71 39 8 116 23 172 34 114 22 209 57 261 96 33 25 34 29
29 73 -8 68 -122 274 -421 763 -186 304 -313 509 -351 568 -48 74 -106 165
-220 345 -149 236 -349 534 -365 545 -4 3 -14 19 -23 35 -9 17 -45 62 -81 100
-36 39 -66 74 -66 78 0 5 -5 5 -11 2 -6 -4 -21 3 -34 15 -15 14 -25 18 -30 11z"/>
<path d="M7470 7000 c-9 -6 -10 -10 -3 -10 6 0 15 5 18 10 8 12 4 12 -15 0z"/>
<path d="M7412 6993 c-12 -2 -20 -9 -17 -14 4 -5 1 -9 -5 -9 -6 0 -8 -5 -5
-11 4 -6 0 -9 -11 -7 -14 2 -19 -3 -18 -19 0 -12 -3 -20 -8 -17 -4 3 -8 -4 -8
-15 0 -12 -5 -21 -11 -21 -6 0 -9 -7 -6 -14 4 -9 -2 -17 -14 -21 -10 -4 -16
-11 -13 -17 4 -6 10 -5 15 3 6 10 9 10 9 2 0 -7 -6 -16 -12 -20 -19 -12 -38
-49 -38 -73 0 -12 -4 -18 -10 -15 -7 4 -7 -3 0 -19 6 -18 6 -26 -1 -26 -6 0
-8 -7 -5 -16 3 -8 2 -12 -4 -9 -6 4 -10 -8 -10 -29 0 -23 -6 -38 -17 -45 -10
-5 -15 -13 -11 -17 4 -3 1 -19 -8 -35 -8 -17 -12 -39 -8 -54 3 -14 2 -25 -4
-25 -14 0 -21 -48 -8 -54 7 -3 7 -5 -1 -5 -7 -1 -13 -8 -13 -16 0 -8 -5 -15
-11 -15 -5 0 -7 -5 -3 -12 4 -6 1 -16 -7 -22 -8 -6 -15 -22 -15 -36 -4 -59
-10 -90 -17 -90 -5 0 -6 -4 -2 -9 3 -5 0 -13 -6 -16 -6 -4 -8 -18 -5 -31 4
-15 2 -24 -5 -24 -7 0 -9 -3 -6 -6 3 -4 1 -16 -5 -28 -21 -39 -37 -123 -25
-135 8 -8 8 -11 0 -11 -11 0 -20 -39 -28 -127 -3 -29 -11 -70 -19 -92 -8 -23
-9 -38 -3 -34 6 3 7 1 3 -6 -4 -6 -10 -23 -12 -38 -3 -15 -8 -31 -12 -37 -3
-6 -5 -19 -4 -29 2 -10 -1 -24 -6 -30 -6 -7 -13 -29 -17 -50 -4 -20 -11 -40
-17 -43 -5 -3 -5 -11 2 -19 8 -9 8 -15 0 -20 -5 -3 -10 -15 -10 -26 0 -11 -3
-18 -8 -15 -8 5 -6 -68 2 -90 3 -8 0 -11 -9 -8 -9 4 -13 -1 -11 -13 2 -9 -3
-23 -10 -30 -7 -7 -10 -21 -7 -32 3 -10 0 -28 -6 -38 -7 -14 -7 -23 1 -31 7
-7 9 -12 5 -12 -4 0 -3 -9 3 -20 7 -14 8 -26 0 -39 -5 -11 -6 -22 -1 -25 5 -3
9 -27 9 -52 1 -33 9 -58 26 -83 14 -20 27 -47 29 -59 2 -13 20 -39 40 -57 20
-19 37 -38 37 -42 0 -9 108 -108 118 -108 4 -1 18 -7 32 -15 14 -8 34 -13 45
-11 20 3 46 31 39 42 -2 4 3 10 12 13 8 3 12 10 9 16 -3 5 -1 10 4 10 6 0 10
3 9 8 -3 16 15 150 27 202 21 84 24 104 30 224 4 61 13 147 20 191 7 44 16
126 20 183 6 97 9 122 20 182 3 14 7 70 10 125 7 133 15 227 21 236 2 4 6 45
9 91 8 131 14 191 25 265 6 37 12 138 14 224 1 85 6 160 9 166 4 7 2 15 -4 18
-5 4 -8 13 -5 21 3 8 1 14 -5 14 -7 0 -9 10 -5 23 3 13 1 38 -4 55 -5 19 -5
32 0 32 5 0 7 7 3 16 -3 8 -12 13 -20 10 -7 -3 -16 1 -19 9 -4 8 -9 14 -13 14
-3 -1 -16 -4 -29 -6z m-492 -1773 c0 -5 -5 -10 -11 -10 -5 0 -7 5 -4 10 3 6 8
10 11 10 2 0 4 -4 4 -10z"/>
<path d="M1894 5939 c-2 -5 -12 -5 -21 -2 -10 4 -14 2 -10 -4 4 -6 -3 -8 -18
-5 -17 3 -25 0 -25 -9 0 -11 -2 -11 -9 0 -8 12 -12 12 -25 2 -9 -8 -16 -11
-16 -7 0 8 -50 -23 -89 -56 -18 -15 -30 -32 -27 -37 4 -5 1 -11 -6 -13 -16 -6
-22 -41 -22 -128 0 -99 6 -130 44 -225 63 -159 217 -352 709 -894 42 -46 89
-98 104 -115 191 -212 501 -526 518 -526 6 0 27 -14 48 -31 21 -17 45 -31 52
-32 8 -2 20 -6 26 -10 7 -4 23 -3 35 4 16 9 23 9 26 0 2 -6 8 -11 13 -11 6 0
8 4 5 9 -3 5 1 12 9 15 8 3 15 9 14 13 -1 4 -1 15 0 23 1 12 3 13 10 1 6 -9
11 -10 15 -2 4 6 4 11 1 11 -4 0 3 14 15 30 12 17 23 37 24 45 1 8 6 18 11 22
4 4 5 2 0 -6 -5 -9 -4 -12 3 -7 7 4 12 16 12 27 0 10 6 19 13 19 9 0 9 2 -1 9
-11 7 -11 9 2 14 11 4 15 16 12 36 -2 17 0 32 4 33 9 3 20 59 25 118 2 19 6
48 10 64 6 20 4 27 -3 22 -6 -3 -14 -1 -18 5 -4 7 -3 9 4 5 7 -4 10 9 10 39 0
24 3 49 7 55 3 5 3 10 -2 10 -4 0 -7 23 -7 50 1 28 -2 50 -6 50 -7 0 -8 5 -14
55 -5 47 -17 85 -28 85 -5 0 -7 4 -3 9 3 5 -1 16 -9 24 -8 8 -12 17 -9 20 3 3
-2 13 -10 22 -9 9 -13 23 -10 32 4 11 3 14 -5 9 -8 -5 -10 -2 -6 8 3 9 1 16
-5 16 -6 0 -11 7 -11 15 0 8 -4 15 -10 15 -5 0 -10 7 -10 16 0 8 -4 12 -10 9
-5 -3 -10 0 -10 8 0 8 -7 17 -15 21 -8 3 -15 10 -15 17 0 17 -36 59 -45 51 -3
-4 -6 -2 -5 3 5 22 -1 36 -12 29 -6 -4 -8 -3 -5 3 4 5 -5 25 -18 43 -14 19
-25 31 -25 27 0 -5 -27 19 -60 51 -33 33 -60 65 -60 71 0 6 -7 11 -15 11 -8 0
-15 4 -15 10 0 14 -66 80 -80 80 -6 0 -8 5 -5 10 3 6 0 10 -8 10 -15 0 -117
97 -117 112 0 5 -4 6 -10 3 -5 -3 -10 -1 -10 4 0 6 -7 11 -15 11 -8 0 -15 5
-15 12 0 6 -22 32 -49 57 -66 61 -78 71 -90 71 -6 0 -21 14 -33 31 -13 16 -37
39 -55 50 -18 12 -31 25 -27 30 3 5 0 8 -8 7 -7 -2 -12 3 -10 10 1 8 -1 11 -6
8 -5 -3 -18 3 -30 14 -11 11 -26 21 -32 22 -6 2 -31 22 -56 45 -26 24 -50 41
-54 38 -5 -3 -11 -1 -15 5 -3 5 -16 10 -28 10 -12 0 -34 11 -49 24 -14 14 -29
22 -32 19 -3 -4 -6 -2 -6 4 0 6 -12 9 -27 7 -33 -4 -75 5 -69 15 2 3 -18 7
-45 7 -28 0 -52 -3 -55 -7z"/>
<path d="M1642 5032 c-18 -33 -24 -138 -23 -357 1 -258 1 -257 61 -990 12
-145 18 -227 25 -365 5 -91 16 -206 30 -315 2 -16 6 -57 10 -90 3 -33 8 -73
10 -90 2 -16 7 -61 10 -100 7 -85 11 -110 47 -305 12 -63 31 -135 42 -159 19
-40 25 -44 61 -47 107 -9 432 151 803 393 99 64 202 150 202 168 0 3 9 15 20
27 10 12 17 24 15 29 -3 4 -1 19 5 34 6 15 15 59 20 97 6 39 13 75 17 82 4 6
9 22 10 36 2 14 11 59 19 100 32 146 33 308 2 347 -5 7 -7 16 -4 22 3 5 -1 11
-9 15 -8 3 -15 12 -15 20 0 29 -115 196 -209 302 -20 22 -56 65 -81 94 -25 30
-99 115 -165 189 -66 74 -153 171 -192 217 -211 242 -617 653 -648 655 -5 0
-20 2 -32 5 -14 2 -26 -3 -31 -14z"/>
<path d="M6860 4481 c0 -8 -11 -11 -31 -7 -23 3 -29 1 -25 -10 3 -7 2 -13 -2
-13 -35 5 -49 -4 -60 -37 -8 -27 -8 -33 2 -25 8 7 12 5 12 -10 0 -10 -4 -19
-9 -19 -4 0 -5 -4 -2 -10 3 -5 2 -10 -2 -10 -5 0 -9 -13 -8 -29 0 -24 4 -28
27 -29 16 0 28 4 28 9 0 6 5 7 10 4 6 -3 10 0 10 7 0 9 3 9 10 -2 8 -12 13
-13 29 -3 18 11 19 10 14 -5 -5 -13 -3 -14 7 -5 7 6 19 9 26 6 8 -3 17 2 20
11 3 9 14 16 24 16 18 0 50 30 50 47 0 13 -44 53 -59 53 -7 0 -9 5 -5 12 5 8
2 9 -9 5 -10 -3 -17 -3 -17 2 0 4 -9 18 -20 31 -11 13 -20 18 -20 11z"/>
<path d="M8630 4379 c-19 -4 -78 -10 -130 -14 -52 -3 -135 -13 -185 -20 -49
-8 -124 -17 -165 -20 -41 -4 -111 -12 -155 -20 -44 -7 -107 -16 -140 -20 -33
-3 -82 -12 -110 -19 -27 -8 -79 -19 -115 -27 -89 -17 -139 -41 -181 -86 -64
-68 -73 -90 -135 -318 -24 -90 -32 -174 -19 -214 3 -12 10 -19 15 -16 5 3 11
1 14 -4 7 -10 66 1 146 29 58 19 379 160 539 236 51 24 95 44 97 44 9 0 513
251 623 310 136 73 181 107 181 136 0 18 -8 23 -43 28 -53 8 -191 5 -237 -5z"/>
<path d="M9105 4168 c-168 -57 -678 -295 -1183 -550 -567 -287 -693 -366 -763
-478 -60 -96 -174 -488 -314 -1075 -13 -55 -29 -122 -35 -150 -12 -47 -22 -98
-55 -275 -16 -83 -19 -139 -7 -156 10 -15 35 -22 47 -13 72 57 181 160 270
255 61 65 138 147 171 183 34 37 82 89 107 116 25 28 60 66 78 86 19 19 72 78
119 130 195 215 287 317 326 359 123 134 571 632 855 950 342 383 479 556 479
604 0 18 -6 22 -32 23 -18 1 -46 -3 -63 -9z"/>
<path d="M7055 4072 c-2 -2 -9 -5 -17 -6 -104 -21 -248 -84 -352 -154 -69 -46
-151 -136 -140 -153 3 -5 0 -9 -6 -9 -6 0 -13 -8 -17 -17 -3 -10 -12 -25 -20
-34 -7 -9 -16 -25 -18 -35 -2 -11 -11 -40 -19 -66 -8 -27 -13 -48 -10 -48 2 0
-3 -11 -12 -25 -9 -14 -12 -25 -8 -25 5 0 9 -33 10 -73 0 -93 5 -118 26 -138
10 -9 14 -20 10 -24 -4 -5 -1 -5 7 0 7 4 16 3 20 -3 5 -8 18 -8 46 -1 22 6 54
13 70 16 17 3 32 9 35 12 3 4 25 15 50 25 65 27 157 72 215 105 78 45 154 165
187 296 6 22 19 69 29 105 20 69 29 117 34 189 2 36 -1 44 -16 48 -11 3 -19 8
-19 12 0 7 -78 9 -85 3z"/>
<path d="M4986 3282 c-4 -3 -30 -8 -59 -10 -60 -4 -92 -8 -92 -12 0 -3 -42
-10 -72 -11 -13 -1 -23 -5 -23 -9 0 -3 -6 -7 -12 -8 -46 -3 -151 -37 -185 -59
-13 -9 -23 -12 -23 -8 0 4 -7 2 -15 -5 -8 -7 -22 -10 -30 -6 -8 3 -15 2 -15
-3 0 -7 -33 -20 -60 -23 -28 -4 -216 -124 -212 -136 1 -4 -5 -16 -15 -27 -22
-25 -21 -70 2 -95 14 -15 15 -20 4 -20 -9 -1 -6 -5 6 -13 12 -7 32 -22 45 -34
62 -55 74 -63 92 -63 11 0 27 -9 37 -21 19 -23 107 -38 201 -33 178 10 224 14
258 23 20 6 48 12 62 15 14 2 54 11 90 20 36 8 83 17 105 21 22 3 48 8 57 11
9 3 25 6 35 8 10 2 54 18 98 34 44 17 98 35 121 41 48 13 124 65 125 86 3 50
1 63 -16 93 -11 17 -22 32 -25 32 -3 0 -28 20 -54 45 -27 25 -53 45 -58 45 -5
0 -6 6 -2 13 4 6 4 9 -1 5 -4 -4 -23 2 -42 13 -18 11 -33 17 -33 13 0 -4 -12
4 -27 18 -16 14 -36 24 -45 23 -9 -2 -22 3 -29 11 -6 8 -15 11 -21 8 -5 -3
-19 0 -31 8 -14 9 -35 12 -57 8 -19 -3 -45 -3 -56 1 -12 4 -25 5 -28 1z"/>
<path d="M6838 3024 c-3 -2 -18 -7 -34 -10 -26 -5 -49 -15 -114 -51 -14 -7
-54 -29 -90 -48 -94 -51 -176 -119 -202 -167 -12 -24 -21 -46 -20 -50 1 -5 -2
-8 -7 -8 -17 0 -33 -99 -27 -167 3 -38 8 -99 11 -138 9 -125 16 -167 56 -370
25 -123 50 -221 66 -255 14 -30 26 -58 25 -61 -1 -3 9 -11 21 -16 23 -11 57 3
59 24 1 4 12 32 25 62 13 30 30 77 38 105 8 28 28 96 45 151 17 55 39 132 49
170 11 39 29 106 41 150 12 44 28 109 35 145 7 36 18 76 23 90 10 25 43 177
62 284 12 71 13 126 2 144 -9 13 -55 25 -64 16z"/>
<path d="M3765 2681 c-3 -8 -8 -11 -12 -8 -3 4 -12 2 -19 -4 -7 -6 -27 -12
-44 -14 -29 -4 -91 -40 -98 -57 -2 -4 -15 -8 -28 -8 -13 0 -24 -4 -24 -10 0
-5 -7 -10 -16 -10 -8 0 -13 -4 -10 -9 3 -4 -7 -8 -22 -9 -15 0 -38 -2 -52 -5
-14 -2 -29 -5 -33 -6 -5 0 -5 -6 -1 -13 5 -8 2 -9 -12 -4 -24 11 -34 11 -61 2
-13 -4 -23 -3 -23 2 0 5 -18 7 -40 5 -22 -3 -46 -1 -53 5 -7 5 -21 8 -32 5
-11 -2 -31 -5 -45 -7 -69 -9 -110 -22 -184 -59 -116 -57 -227 -122 -256 -150
-14 -13 -38 -32 -53 -41 -15 -10 -27 -25 -27 -34 0 -8 3 -12 6 -9 4 3 14 2 24
-3 10 -5 20 -6 24 -3 4 4 23 8 44 10 118 9 302 40 316 54 6 5 21 9 33 9 13 0
35 7 48 16 14 9 25 13 25 10 0 -4 8 -2 19 3 10 6 31 12 47 15 16 2 48 7 71 11
24 4 45 11 49 16 3 5 18 9 33 9 15 0 36 7 47 15 10 8 36 15 57 15 23 0 36 4
32 10 -4 6 8 10 27 11 81 2 169 22 251 58 27 12 66 24 88 27 21 4 39 9 39 13
0 3 11 7 25 7 13 1 31 9 40 18 19 18 17 72 -2 69 -7 -2 -20 8 -28 21 -12 17
-24 23 -45 22 -16 -1 -31 2 -33 7 -5 15 -86 14 -92 -2z"/>
<path d="M5530 2576 c-190 -33 -319 -61 -500 -110 -8 -2 -42 -11 -76 -20 -173
-45 -185 -78 -67 -188 44 -42 50 -47 241 -187 313 -232 432 -318 737 -526 168
-114 297 -185 339 -185 54 0 70 53 52 170 -26 164 -47 273 -67 349 -26 96 -68
260 -73 286 -7 31 -31 103 -66 190 -17 44 -33 89 -35 99 -9 40 -94 109 -152
122 -54 13 -259 12 -333 0z"/>
<path d="M4330 2313 c-14 -2 -77 -11 -140 -19 -111 -15 -402 -69 -545 -100
-119 -27 -446 -95 -530 -111 -44 -9 -129 -28 -190 -43 -267 -67 -377 -102
-405 -130 -17 -17 -17 -18 -1 -31 30 -24 60 -39 79 -39 10 0 22 -4 28 -8 17
-16 121 -45 224 -62 30 -6 116 -24 190 -40 74 -17 182 -39 240 -50 58 -10 150
-28 205 -40 55 -12 145 -30 200 -39 55 -10 172 -32 260 -50 381 -75 563 -110
610 -116 28 -4 66 -11 86 -16 36 -9 217 -42 324 -59 61 -10 221 -40 350 -65
39 -8 115 -22 170 -31 55 -9 138 -22 185 -30 188 -32 310 -28 310 10 0 39
-335 301 -880 688 -319 226 -461 315 -577 361 -42 16 -144 27 -193 20z"/>
</g>
</svg>
